<?xml version="1.0" standalone="no"?>
<!DOCTYPE svg PUBLIC "-//W3C//DTD SVG 20010904//EN"
 "http://www.w3.org/TR/2001/REC-SVG-20010904/DTD/svg10.dtd">
<svg version="1.0" xmlns="http://www.w3.org/2000/svg"
 width="500.000000pt" height="500.000000pt" viewBox="0 0 500.000000 500.000000"
 preserveAspectRatio="xMidYMid meet">

<g transform="translate(0.000000,500.000000) scale(0.100000,-0.100000)"
fill="#000000" stroke="none">
<path d="M2381 4293 c-23 -5 -23 -7 -19 -79 5 -70 3 -78 -26 -127 -41 -69 -60
-71 -118 -9 -42 45 -47 55 -53 116 l-7 66 -36 0 -35 0 7 -77 c11 -135 16 -144
154 -272 12 -12 22 -31 22 -43 1 -61 24 -87 55 -64 13 9 17 26 17 65 -1 42 3
60 23 85 13 17 36 58 51 90 24 53 26 66 20 135 -6 82 -15 122 -25 120 -3 -1
-17 -4 -30 -6z"/>
<path d="M3071 4187 c-5 -12 -43 -100 -85 -196 -42 -95 -73 -178 -69 -185 4
-6 7 -20 8 -31 0 -15 18 -29 65 -52 108 -52 164 -67 205 -53 43 14 53 29 111
159 37 85 44 111 44 165 0 58 -3 67 -29 93 -16 16 -77 50 -135 76 -106 46
-107 46 -115 24z m129 -160 c36 -17 66 -39 68 -48 4 -22 -73 -188 -91 -195
-15 -5 -112 28 -141 49 -16 12 -15 18 19 97 38 90 61 130 73 130 4 0 36 -15
72 -33z"/>
<path d="M1727 4123 c-104 -54 -121 -77 -112 -155 3 -28 13 -65 22 -82 36 -73
57 -78 180 -49 59 13 75 14 87 3 9 -7 16 -17 16 -22 0 -5 -42 -28 -94 -52
l-94 -44 5 -44 c10 -78 10 -78 146 -13 55 26 85 47 98 69 34 56 19 158 -33
213 -26 28 -73 30 -160 7 -33 -8 -67 -13 -74 -10 -32 12 -11 38 60 73 69 34
75 39 79 72 5 42 -7 81 -25 81 -7 -1 -53 -21 -101 -47z"/>
<path d="M1325 3873 c-194 -182 -197 -184 -189 -201 4 -9 6 -26 5 -38 -1 -11
4 -26 12 -32 11 -10 24 -5 60 23 25 19 52 35 59 35 7 0 65 -54 128 -121 127
-133 144 -141 153 -66 5 46 4 48 -136 201 l-68 74 32 31 c24 24 30 37 25 56
-3 13 -2 27 4 30 9 6 -17 54 -30 54 -3 0 -27 -21 -55 -46z"/>
<path d="M3564 3828 c-39 -40 -94 -99 -122 -131 -51 -57 -52 -60 -52 -121 0
-51 5 -70 28 -107 34 -52 92 -99 136 -109 60 -13 87 4 205 130 91 97 112 125
108 142 -4 12 -1 28 5 35 8 10 4 18 -13 33 l-24 20 -115 -120 c-132 -139 -144
-143 -210 -84 -22 20 -40 42 -40 49 0 6 45 60 101 118 75 80 100 112 98 129
-2 13 0 29 5 36 7 12 -18 52 -33 52 -4 0 -38 -33 -77 -72z"/>
<path d="M2408 3440 c-255 -43 -458 -230 -523 -480 -21 -81 -16 -271 9 -339 9
-24 15 -46 13 -47 -2 -2 -35 10 -73 26 -91 39 -136 39 -175 1 -25 -25 -29 -37
-29 -82 0 -61 23 -104 80 -149 55 -43 173 -96 250 -111 36 -7 66 -13 67 -14 2
-1 -7 -28 -18 -61 -52 -145 19 -320 156 -389 69 -35 69 -49 -2 -60 -80 -11
-199 -55 -237 -87 -44 -36 -46 -65 -8 -100 86 -81 319 -127 644 -128 266 0
463 28 583 84 92 43 117 87 74 132 l-21 22 51 62 c86 107 139 227 157 353 l6
47 -26 -10 -26 -10 0 58 c0 31 -3 67 -6 79 -6 20 -8 19 -38 -20 -27 -34 -38
-41 -61 -39 -90 10 -191 114 -213 219 -7 32 -4 45 20 87 16 27 41 83 56 125
23 67 26 91 26 201 -1 116 -3 131 -32 210 -38 99 -81 169 -150 237 -146 146
-357 216 -554 183z m274 -80 c224 -69 388 -278 405 -516 20 -278 -174 -541
-447 -605 -78 -18 -213 -16 -285 5 l-60 18 37 19 c50 26 105 84 113 120 8 37
-2 84 -21 100 -8 7 -54 18 -101 25 -86 13 -87 13 -144 70 -72 71 -97 74 -160
21 -23 -21 -46 -34 -49 -30 -4 5 -12 28 -19 53 -7 25 -15 54 -18 65 -4 16 -3
18 8 8 23 -22 66 -15 88 13 29 37 29 121 0 158 -22 28 -48 33 -80 15 -18 -9
-19 -7 -13 18 45 203 183 364 369 432 123 45 256 49 377 11z m-659 -491 c5 -9
7 -28 3 -42 -8 -34 -42 -36 -57 -3 -22 47 27 88 54 45z m1013 -606 c34 -53 89
-100 144 -123 16 -7 30 -18 30 -25 0 -18 28 -27 50 -15 37 20 39 8 10 -52
l-19 -41 44 5 44 5 -23 -63 c-92 -253 -340 -418 -601 -401 -245 17 -454 174
-536 404 -15 40 -23 92 -26 171 -6 112 -5 112 17 112 13 0 51 -11 84 -24 60
-24 117 -40 187 -51 l36 -5 -21 -43 c-28 -56 -29 -176 -2 -227 25 -49 74 -98
119 -122 47 -23 169 -48 242 -48 116 0 271 44 322 92 29 27 29 38 0 38 -40 0
-38 12 6 40 51 33 91 75 84 88 -4 5 -30 14 -60 21 l-54 12 39 38 c21 21 38 44
38 50 0 7 -22 11 -59 11 -67 0 -184 21 -250 44 -51 19 -59 15 -43 -18 15 -33
59 -55 141 -71 l66 -12 -43 -19 c-39 -17 -41 -21 -29 -37 7 -10 42 -27 77 -36
l65 -18 -34 -17 c-18 -10 -57 -20 -87 -23 -44 -5 -54 -9 -54 -25 0 -11 15 -28
37 -41 l37 -21 -44 -14 c-60 -18 -231 -20 -300 -3 -146 36 -218 164 -161 286
27 59 57 80 131 93 83 15 208 76 285 139 l60 49 9 -25 c5 -14 24 -49 42 -78z
m-952 -77 c-9 -24 13 -179 35 -242 l19 -59 -29 34 c-56 67 -75 193 -39 260 12
24 22 28 14 7z"/>
<path d="M2317 2891 c-81 -97 -6 -274 94 -221 52 28 67 150 26 211 -18 26 -31
35 -58 37 -30 3 -41 -2 -62 -27z m101 -3 c16 -16 15 -70 -2 -94 -33 -43 -83
33 -52 80 18 28 35 33 54 14z"/>
<path d="M964 3430 c-41 -16 -153 -198 -137 -222 4 -7 6 -20 5 -29 -1 -8 5
-22 15 -31 28 -24 324 -188 339 -188 15 0 16 2 19 40 1 14 5 35 9 46 5 17 1
24 -21 33 -16 6 -40 21 -55 34 l-28 22 36 58 c41 66 52 69 125 31 57 -28 79
-22 77 24 -1 15 2 34 6 43 5 12 -9 24 -62 53 -70 36 -105 43 -131 27 -10 -7
-24 -3 -42 10 -32 22 -109 59 -124 58 -5 0 -20 -4 -31 -9z m79 -136 c18 -9 33
-18 35 -19 2 -2 -8 -26 -22 -53 l-26 -51 -45 25 c-25 14 -47 29 -49 33 -8 12
43 81 60 81 8 0 29 -7 47 -16z"/>
<path d="M3873 3349 c-135 -72 -163 -101 -163 -168 0 -63 79 -231 108 -231 25
0 44 23 36 43 -3 8 -1 18 5 21 6 4 -6 36 -30 80 -31 57 -37 76 -27 83 31 25
186 103 205 103 25 0 42 -19 83 -93 18 -32 39 -61 47 -64 21 -8 45 18 39 43
-4 13 -2 25 3 28 14 9 -64 146 -104 184 -22 20 -45 32 -62 32 -16 0 -78 -28
-140 -61z"/>
<path d="M4053 2902 l-193 -35 0 -47 c0 -66 12 -74 93 -59 36 7 72 9 80 6 9
-3 20 -29 27 -63 11 -52 10 -59 -6 -71 -10 -7 -26 -13 -35 -13 -10 0 -40 -5
-66 -10 l-48 -11 5 -52 c6 -62 13 -65 114 -47 75 13 116 42 116 80 0 31 22 34
102 16 44 -10 75 -13 81 -7 12 12 11 91 -1 103 -5 5 -50 20 -98 32 -74 18 -90
26 -92 43 -3 23 0 25 91 43 31 6 58 14 58 18 13 74 6 112 -19 111 -9 -1 -104
-17 -209 -37z"/>
<path d="M835 2879 c-123 -28 -144 -49 -152 -155 -8 -86 8 -111 106 -168 74
-44 161 -71 247 -78 44 -3 54 8 54 62 0 45 -2 50 -25 55 -84 17 -77 11 -69 63
3 26 11 58 18 72 10 23 16 25 64 22 38 -3 52 0 53 10 1 7 2 33 3 58 l1 44 -70
13 c-82 14 -173 15 -230 2z m91 -171 c-4 -34 -10 -66 -12 -70 -9 -15 -29 -8
-92 29 -61 36 -74 54 -50 69 16 10 107 32 137 33 23 1 23 0 17 -61z"/>
<path d="M1697 1074 c-4 -4 -7 -22 -7 -41 0 -23 -5 -33 -15 -33 -10 0 -15 11
-15 35 0 24 -5 35 -15 35 -12 0 -15 -18 -15 -100 0 -82 3 -100 15 -100 11 0
15 12 15 45 0 33 4 45 15 45 11 0 15 -12 15 -46 0 -38 3 -45 18 -42 15 3 17
14 14 98 -3 90 -10 119 -25 104z"/>
<path d="M1770 1070 c-15 -9 -26 -144 -15 -187 8 -32 35 -18 35 18 0 42 28 38
32 -3 6 -63 23 -27 26 55 3 87 -5 110 -43 121 -11 3 -27 1 -35 -4z m48 -68 c2
-24 -1 -32 -12 -32 -17 0 -32 42 -21 60 12 20 30 4 33 -28z"/>
<path d="M1901 1063 c-19 -12 -21 -25 -21 -103 0 -84 9 -115 26 -88 4 7 7 47
6 90 -2 63 0 78 12 78 12 0 16 -18 18 -85 2 -48 7 -85 13 -85 14 -1 28 150 16
176 -12 28 -44 36 -70 17z"/>
<path d="M2012 1068 c-17 -21 -14 -183 3 -198 25 -21 68 1 78 41 10 39 5 135
-9 149 -18 17 -60 22 -72 8z m52 -67 c6 -42 -2 -101 -14 -101 -9 0 -17 105
-12 134 6 27 19 9 26 -33z"/>
<path d="M2157 1072 c-22 -4 -25 -19 -28 -114 -2 -70 0 -83 14 -86 15 -3 17 8
17 82 0 70 3 86 15 86 12 0 15 -15 14 -81 -1 -45 4 -86 10 -92 15 -15 20 5 23
92 2 49 7 76 16 79 9 3 12 -18 12 -82 0 -49 4 -88 11 -91 15 -10 16 -7 23 55
10 80 -1 138 -28 146 -23 8 -74 11 -99 6z"/>
<path d="M2331 1063 c-20 -16 -22 -26 -19 -106 3 -85 20 -124 26 -59 4 37 32
46 32 10 0 -13 4 -29 9 -37 18 -28 28 1 30 83 2 74 -1 88 -19 106 -24 24 -32
25 -59 3z m47 -56 c3 -32 0 -37 -17 -37 -17 0 -21 6 -21 33 0 61 33 63 38 4z"/>
<path d="M2453 1073 c-9 -3 -13 -34 -13 -103 0 -91 2 -99 20 -105 13 -4 31 0
45 9 26 17 29 35 25 131 -2 54 -36 85 -77 68z m42 -98 c0 -46 -4 -70 -12 -72
-10 -4 -13 15 -13 72 0 57 3 76 13 73 8 -3 12 -27 12 -73z"/>
<path d="M2577 1073 c-16 -4 -17 -16 -15 -106 l3 -102 34 0 c41 0 53 22 17 31
-33 8 -38 59 -6 67 18 5 30 39 13 36 -23 -4 -33 3 -33 21 0 13 7 20 19 20 25
0 38 20 20 31 -15 9 -23 10 -52 2z"/>
<path d="M2732 1064 c-19 -13 -22 -24 -22 -92 0 -81 3 -90 35 -108 16 -9 23
-7 38 9 19 22 23 52 8 62 -6 3 -15 -4 -21 -15 -20 -37 -30 -20 -30 50 0 53 3
70 14 70 7 0 16 -9 19 -20 3 -11 10 -20 17 -20 19 0 7 51 -15 66 -18 12 -24
11 -43 -2z"/>
<path d="M2833 1072 c-8 -5 -11 -23 -8 -47 2 -22 4 -66 4 -97 1 -45 4 -58 16
-58 11 0 15 11 15 42 0 33 3 39 12 30 7 -7 12 -24 13 -39 0 -18 6 -29 17 -31
16 -3 17 6 15 87 -1 50 -7 95 -12 100 -15 13 -59 21 -72 13z m47 -57 c0 -13
-4 -27 -10 -30 -6 -4 -10 8 -10 30 0 22 4 34 10 30 6 -3 10 -17 10 -30z"/>
<path d="M2973 1069 c-29 -11 -36 -40 -30 -125 3 -49 9 -69 18 -69 8 0 15 13
17 32 4 45 32 33 32 -14 0 -23 4 -33 13 -31 13 5 22 135 12 175 -7 29 -34 43
-62 32z m35 -67 c3 -27 0 -32 -19 -32 -17 0 -20 4 -15 23 3 12 6 28 6 35 0 28
25 4 28 -26z"/>
<path d="M3083 1065 c-11 -9 -15 -31 -14 -99 1 -48 4 -92 7 -97 12 -20 24 4
24 47 0 40 2 44 25 44 15 0 25 6 25 14 0 8 -11 17 -25 20 -32 8 -34 43 -3 48
13 2 24 10 26 19 3 18 -41 21 -65 4z"/>
<path d="M3173 1073 c-19 -7 -16 -21 7 -28 17 -5 20 -17 22 -91 4 -111 22
-114 26 -4 2 65 6 88 19 97 9 7 14 16 11 19 -8 8 -69 13 -85 7z"/>
<path d="M3290 1060 c-28 -28 -25 -42 16 -78 25 -22 34 -38 32 -54 -5 -36 -32
-28 -36 10 -3 28 -6 31 -18 21 -32 -26 -8 -89 34 -89 38 0 52 17 52 63 0 31
-6 44 -30 65 -30 26 -40 52 -20 52 6 0 10 -7 10 -15 0 -8 7 -15 15 -15 22 0
18 37 -4 50 -26 13 -28 13 -51 -10z"/>
</g>
</svg>
